<svg width="64" height="64" fill="none" xmlns="http://www.w3.org/2000/svg"><path fill-rule="evenodd" clip-rule="evenodd" d="M62.667 53.333A6.666 6.666 0 0 1 56 60H8a6.666 6.666 0 0 1-6.667-6.667V14.667a5.334 5.334 0 0 1 5.334-5.334H33.56l10.8-3.912a1.32 1.32 0 0 1 1.69.786l1.138 3.126H52a5.334 5.334 0 0 1 5.333 5.334v2.666a5.334 5.334 0 0 1 5.334 5.334v30.666ZM6.667 12a2.668 2.668 0 0 0 0 5.333h4.845c.017-.006.028-.021.045-.028L26.2 12H6.667Zm38.77.241-1.416-3.898h-.001l-2.735.99h.004L33.937 12h-.013l-14.719 5.333h28.083l-1.85-5.092Zm9.23 2.426A2.668 2.668 0 0 0 52 12h-3.844l1.939 5.333h4.572v-2.666ZM57.333 20H6.667c-.976 0-1.88-.281-2.667-.74v34.073a4 4 0 0 0 4 4h48a4 4 0 0 0 4-4V44h-5.333a5.334 5.334 0 0 1 0-10.667H60V22.667A2.668 2.668 0 0 0 57.333 20ZM60 41.333V36h-5.333a2.668 2.668 0 0 0 0 5.333H60Zm-5.333-4h2.666V40h-2.666v-2.667Z" fill="#F7931E"/></svg>