<svg width="20" height="20" viewBox="0 0 20 20" fill="none" xmlns="http://www.w3.org/2000/svg">
<path d="M10.0086 0.00878906C10.006 0.00878906 10.0024 0.00923046 9.99978 0.00923046C9.99669 0.00923046 9.99404 0.00878906 9.99095 0.00878906C4.47353 0.00878906 0 4.48187 0 10.0002C0 15.5176 4.47353 19.9911 9.99095 19.9911C9.99404 19.9911 9.99669 19.9911 9.99978 19.9911C10.0024 19.9911 10.006 19.9911 10.0086 19.9911C15.526 19.9911 19.9996 15.5176 19.9996 10.0002C20 4.48187 15.5265 0.00878906 10.0086 0.00878906ZM10.0086 17.1309C10.006 17.1309 10.0024 17.1305 9.99978 17.1305C9.99669 17.1305 9.99404 17.1309 9.99095 17.1309C9.08786 17.1309 8.35559 16.3991 8.35559 15.4955C8.35559 14.5929 9.08786 13.8611 9.99095 13.8611C9.99404 13.8611 9.99669 13.8611 9.99978 13.8611C10.0024 13.8611 10.006 13.8611 10.0086 13.8611C10.9113 13.8611 11.6444 14.5929 11.6444 15.4955C11.6444 16.3986 10.9126 17.1309 10.0086 17.1309ZM12.3537 4.66903C12.2469 6.30086 11.501 11.154 11.501 11.154C11.501 11.9723 10.8305 12.6353 10.0121 12.6353C10.0077 12.6353 10.0033 12.6353 9.99934 12.6353C9.99536 12.6353 9.99051 12.6353 9.98654 12.6353C9.16863 12.6353 8.49816 11.9714 8.49816 11.154C8.49816 11.154 7.75264 6.30086 7.64582 4.66903C7.59286 3.85201 8.21875 2.33493 9.98698 2.33493C9.99139 2.33493 9.99581 2.33538 9.99978 2.33538C10.0038 2.33538 10.0082 2.33493 10.0126 2.33493C11.7804 2.33493 12.4071 3.85201 12.3537 4.66903Z" fill="#FF0000"/>
</svg>
