<svg width="20" height="20" viewBox="0 0 20 20" fill="none" xmlns="http://www.w3.org/2000/svg">
<g clip-path="url(#clip0_4022_33)">
<path d="M10.0001 0C4.4868 0 0.000244141 4.48568 0.000244141 9.99965C0.000244141 15.5136 4.4865 20 10.0001 20C15.5146 20 19.9999 15.5139 19.9999 9.99965C19.9999 4.48568 15.5149 0 10.0001 0ZM14.328 7.95082L9.09072 13.1881C8.93347 13.3451 8.72623 13.4244 8.52092 13.4244C8.31403 13.4244 8.10873 13.3452 7.95095 13.1881L5.67322 10.9103C5.35831 10.5951 5.35831 10.0853 5.67322 9.77046C5.98807 9.4556 6.4979 9.4556 6.81281 9.77046L8.52092 11.4791L13.1891 6.81076C13.5033 6.49626 14.0131 6.49626 14.328 6.81076C14.6429 7.12614 14.6429 7.63597 14.328 7.95082Z" fill="#10D310"/>
</g>
<defs>
<clipPath id="clip0_4022_33">
<rect width="20" height="20" fill="white"/>
</clipPath>
</defs>
</svg>
