<svg width="20" height="20" fill="none" xmlns="http://www.w3.org/2000/svg"><path d="M10.009.009H9.99C4.474.009 0 4.482 0 10s4.474 9.991 9.99 9.991h.019c5.517 0 9.99-4.473 9.99-9.99C20 4.48 15.528.008 10.01.008Zm0 17.122H9.99a1.635 1.635 0 1 1 0-3.27h.018a1.636 1.636 0 1 1 0 3.27Zm2.345-12.462c-.107 1.632-.853 6.485-.853 6.485 0 .818-.67 1.481-1.489 1.481h-.025a1.488 1.488 0 0 1-1.489-1.481s-.745-4.853-.852-6.485c-.053-.817.573-2.334 2.341-2.334h.026c1.767 0 2.394 1.517 2.34 2.334Z" fill="red"/></svg>